<svg width="24" height="9" viewBox="0 0 24 9" fill="none" xmlns="http://www.w3.org/2000/svg">
<path d="M1 0.5C1 0.5 2.14638 1.87565 4 3.30956M23 0.5C23 0.5 21.8536 1.87565 20 3.30956M8 5.66672C9.24421 6.17085 10.5947 6.5 12 6.5C13.4053 6.5 14.7558 6.17085 16 5.66672M8 5.66672L7 7.5M8 5.66672C6.47568 5.04911 5.11084 4.16887 4 3.30956M16 5.66672L17 7.5M16 5.66672C17.5243 5.04911 18.8892 4.16887 20 3.30956M20 3.30956L21.5 5M4 3.30956L3 5M12 7V8.5" stroke="#8A7C64" stroke-linecap="round" stroke-linejoin="round"/>
</svg>
