<svg width="24" height="28" viewBox="0 0 24 28" fill="none" xmlns="http://www.w3.org/2000/svg">
<path d="M1 -4V14.5C0.999981 22.8241 8.00001 25 12 25C16.5 25 23 23.5185 23 16V-4H1Z" fill="black" stroke="black"/>
<path d="M1.5 19C1.5 19 2.28611 20.5807 3.8 22M23.5 19C23.5 19 22.4536 21.0661 20.6 22.5M8.5 24.5C10.5 25 11.174 25 12.5 25C13.826 25 14.5 25 16.5 24.5M8.5 24.5L7.5 27M8.5 24.5C7 24 5.5 23.5 3.8 22M16.5 24.5L17.5 27M16.5 24.5C18.2261 23.9246 19.4892 23.3593 20.6 22.5M20.6 22.5L21.5 24M3.8 22L2.5 24M12.5 25.5V27" stroke="#8A7C64" stroke-linecap="round" stroke-linejoin="round"/>
</svg>
