<svg width="536" height="536" viewBox="0 0 536 536" fill="none" xmlns="http://www.w3.org/2000/svg">
<g clip-path="url(#clip0_1_2)">
<g filter="url(#filter0_f_1_2)">
<g filter="url(#filter1_f_1_2)">
<circle cx="217.625" cy="286.684" r="168.125" stroke="#EDE51B" stroke-width="65"/>
</g>
<g filter="url(#filter2_f_1_2)">
<mask id="path-2-inside-1_1_2" fill="white">
<path d="M395.928 -48L531 83.3883L228.716 394.148L93.6436 262.76L395.928 -48Z"/>
</mask>
<path d="M228.716 394.148L183.394 440.741L229.987 486.063L275.309 439.47L228.716 394.148ZM484.407 38.0661L182.123 348.826L275.309 439.47L577.593 128.71L484.407 38.0661ZM274.038 347.555L138.966 216.167L48.3214 309.353L183.394 440.741L274.038 347.555Z" fill="#EDE51B" mask="url(#path-2-inside-1_1_2)"/>
</g>
</g>
<circle cx="217.625" cy="286.684" r="168.125" stroke="#EDE51B" stroke-width="65"/>
<mask id="path-5-inside-2_1_2" fill="white">
<path d="M395.928 -48L531 83.3883L228.716 394.148L93.6436 262.76L395.928 -48Z"/>
</mask>
<path d="M228.716 394.148L176.421 447.909L230.182 500.204L282.477 446.443L228.716 394.148ZM477.239 31.0935L174.955 341.853L282.477 446.443L584.761 135.683L477.239 31.0935ZM281.011 340.387L145.938 208.999L41.3488 316.521L176.421 447.909L281.011 340.387Z" fill="#EDE51B" mask="url(#path-5-inside-2_1_2)"/>
</g>
<defs>
<filter id="filter0_f_1_2" x="16" y="-49" width="516" height="537.308" filterUnits="userSpaceOnUse" color-interpolation-filters="sRGB">
<feFlood flood-opacity="0" result="BackgroundImageFix"/>
<feBlend mode="normal" in="SourceGraphic" in2="BackgroundImageFix" result="shape"/>
<feGaussianBlur stdDeviation="0.5" result="effect1_foregroundBlur_1_2"/>
</filter>
<filter id="filter1_f_1_2" x="-13" y="56.059" width="461.249" height="461.249" filterUnits="userSpaceOnUse" color-interpolation-filters="sRGB">
<feFlood flood-opacity="0" result="BackgroundImageFix"/>
<feBlend mode="normal" in="SourceGraphic" in2="BackgroundImageFix" result="shape"/>
<feGaussianBlur stdDeviation="15" result="effect1_foregroundBlur_1_2"/>
</filter>
<filter id="filter2_f_1_2" x="58.6436" y="-83" width="507.356" height="512.148" filterUnits="userSpaceOnUse" color-interpolation-filters="sRGB">
<feFlood flood-opacity="0" result="BackgroundImageFix"/>
<feBlend mode="normal" in="SourceGraphic" in2="BackgroundImageFix" result="shape"/>
<feGaussianBlur stdDeviation="17.5" result="effect1_foregroundBlur_1_2"/>
</filter>
<clipPath id="clip0_1_2">
<rect width="536" height="536" fill="white"/>
</clipPath>
</defs>
</svg>
